<svg width="100" height="100" viewBox="0 0 1080 1080" fill="none" xmlns="http://www.w3.org/2000/svg">
<g clip-path="url(#clip0_16_28)">
<rect width="1080" height="1080" rx="250" fill="url(#paint0_linear_16_28)"/>
<path d="M827.938 222H258.101C245.443 222 235.183 232.405 235.183 245.24V382.152C235.183 394.987 245.443 405.392 258.101 405.392H827.938C840.595 405.392 850.856 394.987 850.856 382.152V245.24C850.856 232.405 840.595 222 827.938 222Z" fill="#FAF28C"/>
<path d="M670.863 457.789H257.983C245.391 457.789 235.183 467.822 235.183 480.198V612.221C235.183 624.598 245.391 634.631 257.983 634.631H670.863C683.455 634.631 693.663 624.598 693.663 612.221V480.198C693.663 467.822 683.455 457.789 670.863 457.789Z" fill="#FAF28C"/>
<path d="M827.938 680.479H258.101C245.443 680.479 235.183 690.512 235.183 702.889V834.912C235.183 847.288 245.443 857.322 258.101 857.322H827.938C840.595 857.322 850.856 847.288 850.856 834.912V702.889C850.856 690.512 840.595 680.479 827.938 680.479Z" fill="#FAF28C"/>
</g>
<defs>
<linearGradient id="paint0_linear_16_28" x1="0" y1="27.5" x2="1265.03" y2="699.877" gradientUnits="userSpaceOnUse">
<stop stop-color="#9333EA"/>
<stop offset="1" stop-color="#6366F1"/>
</linearGradient>
<clipPath id="clip0_16_28">
<rect width="1080" height="1080" fill="white"/>
</clipPath>
</defs>
</svg>
